<?xml version="1.0" encoding="utf-8"?>
<!-- Generator: Adobe Illustrator 16.0.0, SVG Export Plug-In . SVG Version: 6.00 Build 0)  -->
<!DOCTYPE svg PUBLIC "-//W3C//DTD SVG 1.0//EN" "http://www.w3.org/TR/2001/REC-SVG-20010904/DTD/svg10.dtd">
<svg version="1.0" id="Layer_1" xmlns="http://www.w3.org/2000/svg" xmlns:xlink="http://www.w3.org/1999/xlink" x="0px" y="0px"
	 width="800px" height="800px" viewBox="0 0 800 800" enable-background="new 0 0 800 800" xml:space="preserve">
<g>
	<path fill-rule="evenodd" clip-rule="evenodd" fill="#0B1761" d="M212.455,299.047c0-124.806,78.904-226.523,177.774-231.572
		L275.655,195.842c-24.176,27.563-26.451,47.445-8.672,60.912l146.132,71.014c18.104,12.624,22.657,23.67-1.95,48.922
		l-108.56,121.194C248.595,457.354,212.455,383.444,212.455,299.047 M418.723,68.718c6.675,0.928,13.237,2.299,19.674,4.089
		l-124.69,139.656c-17.671,17.146-24.066,34.297-3.145,45.132l150.687,76.38c16.261,10.941,22.657,23.564-1.95,49.026
		L338.981,518.855c-5.52-2.313-10.923-4.941-16.196-7.866L440.11,378.896c21.354-21.672,16.478-37.137,0.325-48.92l-144.507-71.119
		c-17.78-13.361-27.753-21.146-3.579-48.709L418.723,68.718z M459.781,80.468c5.215,2.305,10.325,4.892,15.316,7.747
		L357.069,224.982c-20.814,24.827-14.745,29.247,3.035,42.607l139.845,71.118c18.103,12.52,22.441,26.302,9.648,43.45
		L381.379,529.901c-6.966-0.769-13.823-2.021-20.545-3.729l124.154-141.069c21.357-21.672,11.924-36.82-4.334-48.604
		l-146.026-74.168c-17.778-13.364-12.899-20.308-4.878-32.722L459.781,80.468z M493.763,100.556
		c53.736,40.586,89.657,114.281,89.657,198.491c0,122.555-76.207,222.998-172.676,231.224L533.229,388.26
		c13.336-17.043,11.818-36.189-4.334-48.078l-147.761-74.696c-6.395-3.154-20.813-12.518-1.517-32.718L493.763,100.556z"/>
	<path fill-rule="evenodd" clip-rule="evenodd" fill="#0B1761" d="M397.938,45.289c117.477,0,207.512,107.164,207.512,252.57
		c0,145.407-90.035,254.937-207.512,254.937S190.461,443.267,190.461,297.859C190.461,152.453,280.461,45.289,397.938,45.289
		 M397.938,25.932c128.171,0,226.87,116.659,226.87,271.928c0,155.271-98.699,274.306-226.87,274.306
		c-128.167,0-226.836-119.034-226.836-274.306C171.102,142.591,269.771,25.932,397.938,25.932z"/>
	<path fill="#0B1761" d="M617.345,677.281h22.84l-11.831-28.441L617.345,677.281z M675.91,701.998v2.93h-37.949v-2.93
		c3.67,0,6.149-0.292,7.438-0.877c1.288-0.585,1.931-1.815,1.931-3.691c0-1.482-0.664-3.981-1.991-7.497
		c-0.544-1.482-1.676-4.178-3.396-8.079h-26.355c-1.717,4.45-3.006,7.886-3.863,10.308c-0.86,2.418-1.291,4.021-1.291,4.802
		c0,2.028,1.095,3.438,3.282,4.216c1.482,0.546,3.59,0.819,6.325,0.819v2.93h-23.778v-2.93c2.966-0.467,5.231-1.757,6.793-3.867
		c1.095-1.482,2.654-4.761,4.684-9.837l26.006-64.19h3.278l26.121,61.613c2.812,6.716,4.881,10.973,6.208,12.77
		C671.071,700.826,673.256,701.998,675.91,701.998z M607.742,625.743v2.93c-2.345,0.392-4.045,0.896-5.097,1.523
		c-1.054,0.623-2.012,1.639-2.872,3.043l-22.374,36.43v21.555c0,4.527,0.745,7.419,2.229,8.664c1.172,0.938,4.02,1.644,8.55,2.11
		v2.93h-40.646v-2.93c4.527-0.467,7.342-1.131,8.433-1.991c1.642-1.327,2.461-4.256,2.461-8.783v-17.22l-21.435-38.888
		c-0.705-1.25-1.213-2.072-1.524-2.462c-2.187-2.654-4.801-3.981-7.849-3.981v-2.93h39.24v2.93c-4.062,0-6.658,0.232-7.789,0.703
		c-1.131,0.467-1.7,1.562-1.7,3.278c0,0.704,0.393,1.815,1.173,3.339c0.781,1.523,1.327,2.597,1.642,3.22l14.036,27.158
		l13.021-21.651c0.938-1.406,1.799-2.966,2.577-4.688c1.327-2.81,1.99-4.879,1.99-6.206c0-2.029-0.856-3.396-2.577-4.097
		c-1.717-0.706-4.138-1.057-7.263-1.057v-2.93H607.742z M529.143,701.998v2.93h-24.012l-24.25-36.663h-3.159v22.959
		c0,4.371,0.741,7.182,2.226,8.432c1.167,1.016,3.863,1.797,8.079,2.343v2.93h-39.589v-2.93c4.372-0.546,7.067-1.249,8.083-2.11
		c1.483-1.327,2.225-4.216,2.225-8.664V639.45c0-4.686-0.86-7.73-2.576-9.139c-1.328-1.095-3.904-1.639-7.731-1.639v-2.93h37.717
		c10.774,0,18.977,1.777,24.597,5.33c5.626,3.555,8.437,8.647,8.437,15.285c0,6.248-2.266,11.131-6.793,14.642
		c-2.499,1.955-6.367,3.749-11.599,5.392l23.545,33.383c0.701,0.938,1.442,1.54,2.225,1.814S528.204,701.998,529.143,701.998z
		 M477.722,634.646v29.869c8.121,0,13.586-1.057,16.396-3.162c3.359-2.499,5.039-7.419,5.039-14.757
		c0-5.859-1.151-10.136-3.458-12.827c-2.302-2.695-5.875-4.039-10.718-4.039c-3.043,0-4.94,0.29-5.679,0.875
		C478.559,631.191,478.033,632.539,477.722,634.646z M384.13,677.281h22.843l-11.832-28.441L384.13,677.281z M442.698,701.998v2.93
		h-37.95v-2.93c3.667,0,6.149-0.292,7.437-0.877c1.29-0.585,1.933-1.815,1.933-3.691c0-1.482-0.663-3.981-1.99-7.497
		c-0.549-1.482-1.681-4.178-3.396-8.079h-26.357c-1.717,4.45-3.006,7.886-3.866,10.308c-0.858,2.418-1.288,4.021-1.288,4.802
		c0,2.028,1.094,3.438,3.279,4.216c1.483,0.546,3.594,0.819,6.326,0.819v2.93h-23.778v-2.93c2.968-0.467,5.231-1.757,6.794-3.867
		c1.095-1.482,2.655-4.761,4.686-9.837l26.003-64.19h3.282l26.121,61.613c2.811,6.716,4.88,10.973,6.207,12.77
		C437.855,700.826,440.043,701.998,442.698,701.998z M357.423,701.998v2.93h-39.357v-2.93c3.671,0,6.131-0.155,7.379-0.467
		c1.249-0.312,1.876-0.979,1.876-1.991c0-1.172-0.938-2.892-2.813-5.154l-21.318-26.588l-3.164,2.925v22.959
		c0,3.126,0.938,5.272,2.813,6.443c1.251,0.783,3.748,1.406,7.497,1.873v2.93h-39.474v-2.93c3.904-0.389,6.401-0.938,7.495-1.639
		c1.797-1.093,2.695-3.319,2.695-6.678v-56.692c0-2.655-0.586-4.646-1.757-5.974c-1.407-1.562-4.218-2.343-8.434-2.343v-2.93h39.474
		v2.93c-3.71,0-6.209,0.508-7.534,1.523c-1.856,1.482-2.775,4.568-2.775,9.254v25.064l25.419-25.535
		c1.328-1.328,2.227-2.266,2.695-2.811c1.014-1.172,1.522-2.381,1.522-3.63c0-1.408-0.644-2.401-1.952-2.989
		c-1.309-0.584-4.021-0.877-8.122-0.877v-2.93h33.969v2.93c-6.714,0-13.47,3.047-20.263,9.136
		c-1.563,1.404-7.342,7.223-17.336,17.452l35.726,44.279c0.782,1.013,1.602,1.68,2.46,1.991
		C355.001,701.843,356.096,701.998,357.423,701.998z M204.914,677.281h22.842l-11.832-28.441L204.914,677.281z M263.48,701.998v2.93
		h-37.951v-2.93c3.671,0,6.149-0.292,7.438-0.877s1.934-1.815,1.934-3.691c0-1.482-0.663-3.981-1.99-7.497
		c-0.549-1.482-1.681-4.178-3.399-8.079h-26.354c-1.718,4.45-3.006,7.886-3.865,10.308c-0.858,2.418-1.287,4.021-1.287,4.802
		c0,2.028,1.092,3.438,3.277,4.216c1.485,0.546,3.593,0.819,6.327,0.819v2.93h-23.78v-2.93c2.969-0.467,5.232-1.757,6.795-3.867
		c1.094-1.482,2.655-4.761,4.685-9.837l26.006-64.19h3.279l26.12,61.613c2.813,6.716,4.881,10.973,6.209,12.77
		C258.638,700.826,260.826,701.998,263.48,701.998z M176.684,649.287h-3.279c-1.407-5.329-3.749-9.976-7.028-13.9
		c-4.451-5.249-9.762-7.887-15.931-7.887c-3.357,0-6.285,0.958-8.786,2.872c-2.497,1.913-3.748,4.683-3.748,8.275
		c0,3.126,0.801,5.604,2.4,7.437c1.602,1.859,4.822,3.986,9.667,6.406l17.217,8.567c2.968,1.484,5.584,3.711,7.848,6.678
		c3.359,4.376,5.037,9.354,5.037,14.896c0,6.187-2.146,11.538-6.442,16.068c-5.31,5.641-12.846,8.452-22.606,8.452
		c-3.749,0-7.204-0.431-10.365-1.286c-3.165-0.86-6.386-1.758-9.667-2.695c-1.092,0-1.872,0.367-2.341,1.112
		c-0.469,0.742-0.859,1.697-1.172,2.869h-3.396V678.22h3.396c1.406,7.03,3.826,12.692,7.262,16.985
		c4.296,5.389,9.879,8.084,16.752,8.084c4.686,0,8.296-1.233,10.834-3.691s3.807-5.621,3.807-9.447c0-3.516-1.21-6.404-3.63-8.689
		c-1.639-1.483-4.804-3.356-9.489-5.622l-7.847-3.748c-8.668-4.158-14.487-8.846-17.453-14.077
		c-1.719-3.064-2.579-6.735-2.579-11.028c0-7.44,2.618-13.294,7.85-17.609c4.529-3.67,10.542-5.507,18.039-5.507
		c3.671,0,7.516,0.665,11.537,1.992c4.021,1.327,6.268,1.991,6.736,1.991c1.403,0,2.418-0.586,3.044-1.757
		c0.312-0.546,0.586-1.291,0.819-2.227h3.516V649.287z"/>
	<path fill="#0B1761" d="M663.056,725.06c0-0.811,0.312-1.534,0.936-2.158c0.626-0.623,1.377-0.938,2.248-0.938
		c0.819,0,1.531,0.301,2.146,0.918c0.613,0.616,0.914,1.337,0.914,2.178c0,0.886-0.301,1.647-0.907,2.265
		c-0.603,0.613-1.314,0.914-2.153,0.914c-0.871,0-1.622-0.312-2.248-0.935C663.367,726.677,663.056,725.926,663.056,725.06
		 M669.714,738.731v26.123c0,2.164,0.088,3.66,0.264,4.496c0.172,0.83,0.68,1.467,1.51,1.903c0.878,0.42,2.287,0.627,4.217,0.627
		v1.152h-18.057v-1.152c1.94,0,3.339-0.207,4.186-0.605c0.861-0.41,1.379-1.054,1.564-1.941c0.183-0.89,0.281-2.384,0.281-4.479
		v-26.123c0-2.078-0.099-3.562-0.281-4.429c-0.186-0.88-0.693-1.503-1.534-1.876c-0.789-0.399-2.193-0.596-4.216-0.596v-1.151
		h18.057v1.151c-2.001,0-3.396,0.196-4.196,0.576c-0.799,0.393-1.317,1.016-1.544,1.896
		C669.802,735.197,669.714,736.673,669.714,738.731z M638.993,729.647v14.71h-1.154c0-1.104-0.136-2.16-0.417-3.156
		c-0.284-1.005-0.684-1.99-1.191-2.956c-0.508-0.965-1.104-1.805-1.774-2.529c-0.685-0.721-1.467-1.355-2.364-1.921
		c-1.747-1.067-3.749-1.592-5.993-1.592c-1.229,0-2.422,0.281-3.579,0.841c-1.155,0.565-2.094,1.354-2.794,2.359
		c-0.712,1.016-1.063,2.12-1.063,3.328c0,1.935,0.867,3.543,2.594,4.813c1.728,1.271,4.578,2.968,8.551,5.106
		c3.985,2.138,6.973,4.149,8.979,6.032c2.012,1.882,3.018,4.246,3.018,7.077c0,1.639-0.312,3.209-0.938,4.704
		c-0.624,1.482-1.521,2.803-2.702,3.951c-1.172,1.141-2.577,2.042-4.216,2.685c-1.633,0.644-3.448,0.969-5.449,0.969
		c-2.329,0-4.585-0.431-6.773-1.28c-1.942-0.772-3.427-1.161-4.47-1.161c-0.684,0-1.161,0.192-1.435,0.596
		c-0.108,0.166-0.207,0.42-0.313,0.762c-0.107,0.35-0.159,0.712-0.159,1.084h-1.151v-14.594h1.151c0,1.466,0.245,2.851,0.726,4.158
		c0.41,1.171,1.016,2.244,1.805,3.22c1.437,1.767,3.064,2.986,4.872,3.66c1.813,0.664,3.523,0.995,5.124,0.995
		c2.245,0,4.216-0.615,5.905-1.846c1.688-1.229,2.526-2.925,2.526-5.092c0-2.138-0.855-3.895-2.577-5.264
		c-1.716-1.363-4.489-3.091-8.306-5.201c-3.826-2.1-6.715-4.1-8.686-5.982c-1.964-1.887-2.949-4.246-2.949-7.077
		c0-2.08,0.585-4.003,1.75-5.758c1.169-1.767,2.712-3.146,4.626-4.137c1.91-1.007,3.972-1.504,6.176-1.504
		c1.758,0,3.672,0.431,5.75,1.275l1.28,0.472l1.474,0.535c0.369,0.098,0.653,0.155,0.839,0.155c0.691,0,1.183-0.202,1.474-0.613
		c0.284-0.402,0.518-1.016,0.681-1.824H638.993z M573.104,732.992v16.742h8.465c1.852,0,3.269-0.129,4.257-0.372
		c0.975-0.254,1.717-0.83,2.214-1.717c0.292-0.528,0.516-1.125,0.682-1.798c0.165-0.685,0.257-1.463,0.257-2.36h1.152v14.835h-1.152
		c0-0.881-0.092-1.64-0.257-2.313c-0.166-0.665-0.4-1.27-0.712-1.805c-0.497-0.881-1.229-1.457-2.184-1.738
		c-0.957-0.284-2.384-0.42-4.257-0.42h-8.465v15.49c0,1.229,0.247,2.078,0.725,2.556c0.478,0.42,1.395,0.626,2.743,0.626h8.686
		c1.854,0,3.378-0.284,4.589-0.858c1.208-0.576,2.254-1.396,3.121-2.48c0.88-1.084,1.984-2.742,3.309-4.967h1.134l-3.563,10.62
		h-32.765v-1.152c1.939,0,3.335-0.207,4.186-0.605c0.86-0.41,1.374-1.054,1.561-1.941c0.186-0.89,0.285-2.384,0.285-4.479v-26.123
		c0-2.078-0.1-3.562-0.285-4.429c-0.187-0.88-0.694-1.503-1.53-1.876c-0.792-0.399-2.197-0.596-4.216-0.596v-1.151h32.511
		l0.499,9.214h-1.28c-0.275-1.581-0.612-2.84-1.023-3.775c-0.419-0.938-0.948-1.622-1.581-2.062
		c-0.637-0.438-1.435-0.722-2.395-0.847c-0.896-0.149-2.214-0.218-3.962-0.218H573.104z M532.539,733.365v31.489
		c0,2.059,0.095,3.532,0.281,4.419c0.187,0.88,0.694,1.544,1.534,1.98c0.866,0.42,2.271,0.627,4.216,0.627v1.152h-18.06v-1.152
		c1.943,0,3.339-0.207,4.189-0.605c0.856-0.41,1.374-1.054,1.561-1.941c0.187-0.89,0.284-2.384,0.284-4.479v-31.489h-6.277
		c-2.459,0-4.227,0.623-5.311,1.873c-1.083,1.25-1.747,3.007-2.001,5.281h-1.121l0.498-9.84h34.544l0.368,9.84h-1.15
		c0-2.352-0.624-4.14-1.873-5.339c-1.249-1.212-3.007-1.815-5.283-1.815H532.539z M484.593,725.06c0-0.811,0.312-1.534,0.935-2.158
		c0.623-0.623,1.375-0.938,2.245-0.938c0.819,0,1.53,0.301,2.146,0.918c0.617,0.616,0.918,1.337,0.918,2.178
		c0,0.886-0.301,1.647-0.907,2.265c-0.606,0.613-1.317,0.914-2.157,0.914c-0.87,0-1.622-0.312-2.245-0.935
		C484.904,726.677,484.593,725.926,484.593,725.06z M491.246,738.731v26.123c0,2.164,0.089,3.66,0.265,4.496
		c0.176,0.83,0.685,1.467,1.514,1.903c0.877,0.42,2.282,0.627,4.216,0.627v1.152h-18.059v-1.152c1.943,0,3.339-0.207,4.188-0.605
		c0.859-0.41,1.375-1.054,1.562-1.941c0.187-0.89,0.284-2.384,0.284-4.479v-26.123c0-2.078-0.098-3.562-0.284-4.429
		c-0.187-0.88-0.695-1.503-1.531-1.876c-0.792-0.399-2.197-0.596-4.219-0.596v-1.151h18.059v1.151c-2.001,0-3.396,0.196-4.195,0.576
		c-0.803,0.393-1.321,1.016-1.545,1.896C491.335,735.197,491.246,736.673,491.246,738.731z M460.529,729.647v14.71h-1.154
		c0-1.104-0.136-2.16-0.42-3.156c-0.281-1.005-0.681-1.99-1.188-2.956c-0.508-0.965-1.104-1.805-1.777-2.529
		c-0.685-0.721-1.464-1.355-2.36-1.921c-1.751-1.067-3.749-1.592-5.994-1.592c-1.232,0-2.421,0.281-3.583,0.841
		c-1.15,0.565-2.089,1.354-2.79,2.359c-0.714,1.016-1.066,2.12-1.066,3.328c0,1.935,0.87,3.543,2.597,4.813
		c1.728,1.271,4.579,2.968,8.551,5.106c3.982,2.138,6.969,4.149,8.98,6.032c2.011,1.882,3.017,4.246,3.017,7.077
		c0,1.639-0.314,3.209-0.938,4.704c-0.627,1.482-1.523,2.803-2.706,3.951c-1.171,1.141-2.577,2.042-4.216,2.685
		c-1.628,0.644-3.443,0.969-5.444,0.969c-2.334,0-4.589-0.431-6.776-1.28c-1.943-0.772-3.427-1.161-4.47-1.161
		c-0.685,0-1.162,0.192-1.437,0.596c-0.104,0.166-0.202,0.42-0.312,0.762c-0.107,0.35-0.155,0.712-0.155,1.084h-1.151v-14.594h1.151
		c0,1.466,0.244,2.851,0.725,4.158c0.41,1.171,1.013,2.244,1.805,3.22c1.437,1.767,3.064,2.986,4.87,3.66
		c1.814,0.664,3.525,0.995,5.123,0.995c2.245,0,4.22-0.615,5.905-1.846c1.69-1.229,2.53-2.925,2.53-5.092
		c0-2.138-0.86-3.895-2.577-5.264c-1.72-1.363-4.49-3.091-8.307-5.201c-3.826-2.1-6.715-4.1-8.686-5.982
		c-1.965-1.887-2.949-4.246-2.949-7.077c0-2.08,0.586-4.003,1.747-5.758c1.172-1.767,2.713-3.146,4.625-4.137
		c1.913-1.007,3.973-1.504,6.181-1.504c1.758,0,3.671,0.431,5.75,1.275l1.276,0.472l1.473,0.535
		c0.373,0.098,0.654,0.155,0.841,0.155c0.693,0,1.181-0.202,1.472-0.613c0.285-0.402,0.519-1.016,0.685-1.824H460.529z
		 M390.678,733.491v17.648h1.407c2.224,0,4.263-0.295,6.101-0.88c1.845-0.576,3.355-1.562,4.547-2.931
		c1.183-1.374,1.774-3.179,1.774-5.403c0-2.56-0.789-4.687-2.37-6.387c-1.581-1.696-3.65-2.547-6.218-2.547
		C394.504,732.992,392.757,733.158,390.678,733.491z M420.762,773.033H409.36l-14.338-19.838h-4.345v11.659
		c0,2.059,0.098,3.532,0.284,4.419c0.185,0.88,0.692,1.544,1.53,1.98c0.869,0.42,2.274,0.627,4.219,0.627v1.152h-18.058v-1.152
		c1.942,0,3.339-0.207,4.187-0.605c0.86-0.41,1.377-1.054,1.561-1.941c0.187-0.89,0.283-2.384,0.283-4.479v-26.123
		c0-2.078-0.097-3.562-0.283-4.429c-0.184-0.88-0.692-1.503-1.531-1.876c-0.791-0.399-2.196-0.596-4.216-0.596v-1.151h18.301
		c3.855,0,6.873,0.607,9.057,1.826c2.188,1.223,3.671,2.664,4.463,4.324c0.789,1.669,1.189,3.281,1.189,4.842
		c0,2.879-0.986,5.232-2.967,7.057c-1.971,1.837-4.48,3.064-7.528,3.688l8.327,11.517c1.249,1.767,2.333,3.151,3.241,4.158
		c0.917,1.005,2.001,1.835,3.261,2.509c1.26,0.664,2.851,1.095,4.765,1.28V773.033z M340.904,732.992v16.742h8.464
		c1.854,0,3.27-0.129,4.255-0.372c0.976-0.254,1.719-0.83,2.217-1.717c0.293-0.528,0.517-1.125,0.682-1.798
		c0.166-0.685,0.256-1.463,0.256-2.36h1.151v14.835h-1.151c0-0.881-0.09-1.64-0.256-2.313c-0.165-0.665-0.399-1.27-0.713-1.805
		c-0.497-0.881-1.229-1.457-2.186-1.738c-0.956-0.284-2.38-0.42-4.255-0.42h-8.464v15.49c0,1.229,0.246,2.078,0.724,2.556
		c0.477,0.42,1.395,0.626,2.742,0.626h8.686c1.856,0,3.38-0.284,4.589-0.858c1.21-0.576,2.256-1.396,3.124-2.48
		c0.878-1.084,1.982-2.742,3.308-4.967h1.133l-3.563,10.62h-32.765v-1.152c1.942,0,3.337-0.207,4.187-0.605
		c0.858-0.41,1.375-1.054,1.56-1.941c0.187-0.89,0.284-2.384,0.284-4.479v-26.123c0-2.078-0.098-3.562-0.284-4.429
		c-0.185-0.88-0.692-1.503-1.53-1.876c-0.791-0.399-2.198-0.596-4.216-0.596v-1.151h32.51l0.499,9.214h-1.28
		c-0.272-1.581-0.614-2.84-1.023-3.775c-0.419-0.938-0.947-1.622-1.58-2.062c-0.637-0.438-1.436-0.722-2.393-0.847
		c-0.897-0.149-2.216-0.218-3.962-0.218H340.904z M296.004,764.343l9.761-23.823c1.181-2.938,1.776-4.773,1.776-5.505
		c0-0.996-0.459-1.769-1.375-2.307c-0.499-0.271-0.997-0.483-1.505-0.643c-0.498-0.155-1.024-0.234-1.59-0.234v-1.151h13.03v1.151
		c-1.757,0.146-3.095,0.803-4.021,1.95c-0.929,1.165-1.808,2.765-2.637,4.834l-14.426,35.453h-1.161l-15.618-35.834
		c-0.85-2-1.434-3.271-1.747-3.805c-0.399-0.715-0.995-1.302-1.814-1.758c-0.431-0.245-0.947-0.447-1.522-0.606
		c-0.586-0.155-1.23-0.234-1.943-0.234v-1.151h17.403v1.151c-1.631,0.196-2.821,0.44-3.591,0.742
		c-0.771,0.295-1.163,1.036-1.163,2.198c0,0.497,0.09,1.052,0.264,1.669c0.185,0.613,0.44,1.286,0.772,2.018l0.78,1.808
		L296.004,764.343z M245.12,725.06c0-0.811,0.312-1.534,0.937-2.158c0.623-0.623,1.376-0.938,2.245-0.938
		c0.819,0,1.532,0.301,2.146,0.918c0.614,0.616,0.916,1.337,0.916,2.178c0,0.886-0.302,1.647-0.905,2.265
		c-0.604,0.613-1.317,0.914-2.157,0.914c-0.869,0-1.622-0.312-2.245-0.935C245.432,726.677,245.12,725.926,245.12,725.06z
		 M251.777,738.731v26.123c0,2.164,0.087,3.66,0.263,4.496c0.175,0.83,0.684,1.467,1.512,1.903c0.879,0.42,2.284,0.627,4.219,0.627
		v1.152h-18.058v-1.152c1.941,0,3.337-0.207,4.187-0.605c0.86-0.41,1.377-1.054,1.563-1.941c0.185-0.89,0.283-2.384,0.283-4.479
		v-26.123c0-2.078-0.099-3.562-0.283-4.429c-0.186-0.88-0.694-1.503-1.533-1.876c-0.791-0.399-2.196-0.596-4.216-0.596v-1.151
		h18.058v1.151c-2.002,0-3.399,0.196-4.198,0.576c-0.801,0.393-1.317,1.016-1.542,1.896
		C251.864,735.197,251.777,736.673,251.777,738.731z M191.386,739.64v25.215c0,2.059,0.097,3.532,0.282,4.419
		c0.185,0.88,0.692,1.544,1.532,1.98c0.869,0.42,2.274,0.627,4.218,0.627v1.152h-14.749v-1.152c1.941,0,3.338-0.207,4.188-0.605
		c0.858-0.41,1.376-1.054,1.561-1.941c0.185-0.89,0.282-2.384,0.282-4.479v-28.679c-0.643-0.792-1.258-1.456-1.843-2
		c-0.576-0.535-1.173-0.987-1.776-1.349c-1.172-0.663-2.782-0.996-4.841-0.996v-1.151h11.525l25.876,31.594h0.108v-23.542
		c0-2.078-0.099-3.562-0.285-4.429c-0.186-0.88-0.692-1.503-1.531-1.876c-0.789-0.399-2.196-0.596-4.216-0.596v-1.151h14.708v1.151
		c-1.999,0-3.396,0.196-4.195,0.576c-0.802,0.393-1.317,1.016-1.543,1.896c-0.165,0.895-0.254,2.37-0.254,4.429v35.08h-1.151
		l-27.769-34.172H191.386z M152.643,726.579c-0.938,0-1.747-0.339-2.431-1.012c-0.693-0.674-1.033-1.493-1.033-2.453
		c0-0.916,0.33-1.716,0.994-2.4c0.674-0.69,1.493-1.032,2.47-1.032c0.976,0,1.795,0.328,2.45,0.991
		c0.653,0.675,0.985,1.487,0.985,2.441c0,0.977-0.343,1.799-1.034,2.473C154.36,726.251,153.561,726.579,152.643,726.579z
		 M141.624,726.579c-0.918,0-1.729-0.328-2.442-0.992c-0.663-0.715-0.995-1.534-0.995-2.473c0-0.954,0.332-1.767,0.995-2.441
		c0.673-0.663,1.484-0.991,2.442-0.991c0.975,0,1.795,0.328,2.469,0.991c0.664,0.675,0.995,1.487,0.995,2.441
		c0,0.96-0.342,1.779-1.016,2.453C143.398,726.24,142.578,726.579,141.624,726.579z M130.622,757.798v-19.066
		c0-2.078-0.097-3.562-0.283-4.429c-0.146-0.88-0.645-1.503-1.493-1.876c-0.811-0.399-2.214-0.596-4.218-0.596v-1.151h18.019v1.151
		c-2,0-3.396,0.196-4.195,0.576c-0.801,0.393-1.317,1.016-1.543,1.896c-0.166,0.895-0.254,2.37-0.254,4.429v16.905
		c0,4.267,0.332,7.409,0.996,9.421c0.674,2.008,1.923,3.542,3.747,4.588c1.836,1.054,3.875,1.581,6.131,1.581
		c2.244,0,4.392-0.439,6.432-1.33c2.04-0.887,3.641-2.194,4.813-3.921c0.87-1.311,1.434-2.919,1.689-4.823
		c0.242-1.903,0.369-4.127,0.369-6.677v-15.744c0-2.078-0.097-3.562-0.283-4.429c-0.184-0.88-0.692-1.503-1.532-1.876
		c-0.789-0.399-2.195-0.596-4.216-0.596v-1.151h14.71v1.151c-2.001,0-3.398,0.196-4.197,0.576c-0.801,0.393-1.318,1.016-1.542,1.896
		c-0.166,0.895-0.256,2.37-0.256,4.429v18.937c0,2.869-0.457,5.534-1.375,7.976c-0.918,2.448-2.577,4.471-4.998,6.052
		c-2.411,1.581-5.699,2.373-9.867,2.373c-4.275,0-7.644-0.734-10.112-2.208c-2.46-1.462-4.168-3.416-5.114-5.838
		C131.102,763.592,130.622,760.852,130.622,757.798z"/>
</g>
</svg>
