<svg xmlns="http://www.w3.org/2000/svg" xmlns:xlink="http://www.w3.org/1999/xlink" width="92" height="48" viewBox="0 0 92 48">
<defs>
  <path id="a" d="M6.222 7.351H.092V.212h6.13v7.14z"></path>
</defs>
<g fill="none" fill-rule="evenodd">
  <g transform="translate(45.14 40.543)">
    <mask id="b" fill="#fff">
      <use xlink:href="#a"></use>
    </mask>
    <path fill="#8F3E9F" d="M4.254 2.087c-.165-.201-.413-.308-.758-.308-.347 0-.617.107-.852.308-.423.363-.566.966-.691 1.687-.124.725-.19 1.34.106 1.701.165.202.4.309.745.309s.632-.107.865-.309c.422-.36.568-.976.694-1.701.124-.721.187-1.324-.11-1.687m.585 4.406c-.505.457-1.28.858-2.304.858C1.51 7.351.888 6.95.54 6.493.026 5.838.004 5.047.224 3.773.441 2.517.737 1.727 1.476 1.07 1.98.614 2.74.212 3.766.212c1.024 0 1.662.402 2.008.857.512.657.535 1.447.318 2.705-.219 1.273-.516 2.064-1.254 2.72" mask="url(#b)"></path>
  </g>
  <path fill="#8F3E9F" d="M55.782 47.813l-1.201-2.905-.877.83-.357 2.075h-1.73l1.646-9.536h1.73l-.934 5.411 2.795-2.854h2.088l-2.96 2.815 1.944 4.164zM62.387 47.813l.11-.642a2.809 2.809 0 0 1-1.853.723c-.693 0-1.213-.227-1.532-.616-.461-.563-.495-1.219-.363-1.984l.77-4.46h1.73l-.728 4.221c-.165.951.379 1.272.925 1.272.544 0 1.212-.32 1.376-1.272l.73-4.221h1.73l-1.205 6.98h-1.69zM67.315 47.813c-1.425 0-1.85-1.002-1.68-1.995l1.303-7.541h1.73l-1.282 7.434c-.072.416.063.63.502.63h.665l-.253 1.472h-.985zM70.976 47.813c-1.424 0-1.849-1.002-1.678-1.995l1.301-7.541h1.73l-1.283 7.434c-.072.416.065.63.505.63h.664l-.254 1.472h-.985zM76.705 44.868h-1.371c-.626 0-1.023.294-1.109.79-.083.48.18.802.86.802.48 0 .792-.041 1.15-.333.215-.175.33-.456.405-.883l.065-.376zm-.47 2.946l.104-.602c-.545.468-1.02.67-1.82.67-.783 0-1.32-.202-1.663-.617-.304-.388-.407-.951-.301-1.568.191-1.112 1.108-2.022 2.718-2.022h1.636l.061-.35c.132-.762-.183-1.097-1.102-1.097-.665 0-1 .16-1.43.577l-.917-1.085c.808-.75 1.511-.965 2.668-.965 1.944 0 2.812.832 2.53 2.464l-.794 4.595h-1.69zM83.769 42.738c-.22-.269-.421-.416-.848-.416-.531 0-1.186.403-1.338 1.286l-.726 4.205h-1.73l1.203-6.979h1.691l-.116.67c.403-.401 1.128-.748 1.873-.748.68 0 1.128.173 1.524.656l-1.533 1.326zM84.518 47.813l1.204-6.98h1.73l-1.204 6.98zM13.587 35.492l.308-2.312a9.716 9.716 0 0 1-6.57 2.6c-2.488 0-4.389-.82-5.59-2.214-1.74-2.019-1.949-4.38-1.583-7.124l2.155-16.035h6.226l-2.04 15.165c-.456 3.422 1.54 4.578 3.503 4.578 1.962 0 4.32-1.156 4.777-4.578l2.039-15.165h6.222l-3.37 25.085h-6.077zM35.231 15.446c-3.69 0-4.472 3.005-4.896 6.147-.42 3.14-.447 6.194 3.236 6.194 3.687 0 4.528-3.054 4.95-6.194.42-3.142.395-6.147-3.29-6.147m-4.335 27.64c-3.828 0-6.363-.727-8.63-3.096l4.378-3.735c1.22 1.276 2.532 1.822 4.639 1.822 3.733 0 5.363-2.503 5.683-4.918l.327-2.414c-1.86 1.735-3.81 2.37-6.257 2.37-2.438 0-4.438-.774-5.648-2.095-2.047-2.233-1.83-5.283-1.274-9.427.556-4.142 1.153-7.147 3.797-9.381 1.563-1.316 3.823-2.094 6.266-2.094 2.63 0 4.259.685 5.74 2.504l.298-2.233h6.035l-3.071 22.863c-.766 5.693-5.585 9.834-12.283 9.834M60.875 35.492l.307-2.312a9.71 9.71 0 0 1-6.568 2.6c-2.493 0-4.391-.82-5.592-2.214-1.739-2.019-1.949-4.38-1.58-7.124l2.15-16.035h6.224l-2.034 15.165c-.461 3.422 1.539 4.578 3.5 4.578 1.964 0 4.317-1.156 4.78-4.578l2.037-15.165h6.22L66.95 35.492h-6.075zM86.584 17.245c-.826-.963-1.572-1.493-3.101-1.493-1.916 0-4.216 1.445-4.643 4.622l-2.029 15.118h-6.223l3.37-25.085h6.078l-.32 2.408c1.388-1.445 3.948-2.697 6.629-2.697 2.443 0 4.08.627 5.57 2.36l-5.33 4.767z"></path>
  <path fill="#A86FAF" d="M37.994 8.372s-.662.65-1.91.65c-1.251 0-1.707-.65-1.707-.65L29.123.488h5.636l2.036 3.35 2.903-3.35h5.635l-7.34 7.884z"></path>
  <path d="M39.667.488L36.78 3.821l2.156 3.506L45.3.488z"></path>
  <path fill="#A86FAF" d="M37.623 5.193s1.551 1.879 3.299 0l-2.369 2.545-.93-2.545z"></path>
</g>
</svg>